<svg version="1.1" viewBox="0.0 0.0 480.0 360.0" fill="none" stroke="none" stroke-linecap="square" stroke-miterlimit="10" xmlns:xlink="http://www.w3.org/1999/xlink" xmlns="http://www.w3.org/2000/svg"><clipPath id="g26e7592218d_0_50.0"><path d="m0 0l480.0 0l0 360.0l-480.0 0l0 -360.0z" clip-rule="nonzero"/></clipPath><g clip-path="url(#g26e7592218d_0_50.0)"><path fill="#ffffff" d="m0 0l480.0 0l0 360.0l-480.0 0z" fill-rule="evenodd"/><g filter="url(#shadowFilter-g26e7592218d_0_50.1)"><use xlink:href="#g26e7592218d_0_50.1" transform="matrix(1.0 0.0 0.0 1.0 0.0 2.0)"/></g><defs><filter id="shadowFilter-g26e7592218d_0_50.1" filterUnits="userSpaceOnUse"><feGaussianBlur in="SourceAlpha" stdDeviation="2.0" result="blur"/><feComponentTransfer in="blur" color-interpolation-filters="sRGB"><feFuncR type="linear" slope="0" intercept="0.0"/><feFuncG type="linear" slope="0" intercept="0.0"/><feFuncB type="linear" slope="0" intercept="0.0"/><feFuncA type="linear" slope="0.5" intercept="0"/></feComponentTransfer></filter></defs><g id="g26e7592218d_0_50.1"><path fill="#000000" fill-opacity="0.0" d="m-58.063717 21.28084l596.126 0l0 116.346466l-596.126 0z" fill-rule="evenodd"/><path fill="#00ff00" d="m73.82947 97.61208l0 9.46875l-28.031246 0l0 -58.75l10.515625 0l0 49.28125l17.515621 0zm5.32872 9.46875l0 -58.75l28.1875 0l0 9.46875l-17.671875 0l0 13.890625l16.0 0l0 9.3125l-16.0 0l0 16.609375l18.953125 0l0 9.46875l-29.46875 0zm56.15184 -7.6875q-1.921875 -6.9375 -3.59375 -12.1875q-1.671875 -5.265625 -3.234375 -9.921875q-1.546875 -4.671875 -2.984375 -8.484375q-1.421875 -3.8125 -0.5625 -4.140625q0.8125 1.5 0.609375 6.96875q-0.1875 5.453125 -0.390625 11.21875q-0.203125 5.75 -0.328125 11.546875q-0.109375 5.78125 -0.21875 12.6875l-10.234375 0q0.3125 -8.921875 0.546875 -16.234375q0.234375 -7.328125 0.59375 -14.421875q0.359375 -7.09375 0.796875 -13.828125q0.453125 -6.734375 1.15625 -14.265625l9.734375 0q1.859375 4.46875 3.703125 9.25q1.859375 4.78125 3.75 10.0q1.890625 5.21875 3.65625 10.4375q1.765625 5.21875 1.46875 5.34375q-0.296875 -0.109375 1.390625 -5.328125q1.6875 -5.21875 3.515625 -10.4375q1.84375 -5.21875 3.65625 -10.0q1.828125 -4.78125 3.6875 -9.265625l9.75 0q0.6875 7.53125 1.125 14.265625q0.453125 6.734375 0.8125 13.828125q0.359375 7.09375 0.59375 14.421875q0.234375 7.3125 0.546875 16.234375l-10.203125 0q-0.21875 -6.890625 -0.34375 -12.71875q-0.109375 -5.84375 -0.3125 -11.71875q-0.203125 -5.875 -0.4375 -11.421875q-0.234375 -5.546875 0.796875 -8.125q1.140625 0.40625 0.0625 3.40625q-1.078125 2.984375 -2.234375 6.5q-1.15625 3.5 -2.390625 7.21875q-1.234375 3.71875 -2.328125 7.140625q-1.078125 3.421875 -1.90625 6.25q-0.828125 2.828125 -1.640625 5.78125l-8.609375 0z" fill-rule="nonzero"/><path fill="#130c0c" d="m201.74933 97.61208l0 9.46875l-28.031235 0l0 -58.75l10.515625 0l0 49.28125l17.51561 0zm5.3287354 9.46875l0 -58.75l28.1875 0l0 9.46875l-17.671875 0l0 13.890625l16.0 0l0 9.3125l-16.0 0l0 16.609375l18.953125 0l0 9.46875l-29.46875 0zm32.88745 -29.421875q0 -8.046875 1.5 -13.828125q1.515625 -5.796875 4.421875 -9.578125q2.921875 -3.78125 7.078125 -5.484375q4.15625 -1.71875 9.203125 -1.71875q3.875 0 7.078125 1.078125q3.203125 1.078125 6.28125 3.234375l-3.421875 9.203125q-3.4375 -2.390625 -5.359375 -3.140625q-1.921875 -0.75 -4.40625 -0.75q-5.984375 0 -8.6875 5.03125q-2.703125 5.015625 -2.703125 15.953125q0 5.90625 0.875 10.0q0.875 4.09375 2.359375 6.515625q1.484375 2.40625 3.5 3.484375q2.015625 1.0625 4.578125 1.0625q2.21875 0 2.578125 -0.109375l0 -22.125l10.515625 0l0 28.78125q-3.28125 1.578125 -6.65625 2.328125q-3.375 0.765625 -7.078125 0.765625q-4.703125 0 -8.734375 -1.875q-4.03125 -1.890625 -6.9375 -5.75q-2.890625 -3.859375 -4.4375 -9.59375q-1.546875 -5.734375 -1.546875 -13.484375zm64.37497 -29.328125q2.296875 7.15625 4.171875 13.296875q1.890625 6.140625 3.703125 12.890625q1.8125 6.734375 3.609375 14.28125q1.796875 7.546875 4.078125 18.28125l-10.640625 0q-0.875 -4.953125 -1.5625 -8.453125q-0.671875 -3.515625 -1.125 -5.703125l-14.75 0q-0.5 2.1875 -1.140625 5.703125q-0.640625 3.5 -1.515625 8.453125l-10.390625 0q2.1875 -10.734375 4.03125 -18.28125q1.84375 -7.546875 3.640625 -14.28125q1.8125 -6.75 3.703125 -12.890625q1.890625 -6.140625 4.15625 -13.296875l10.03125 0zm-5.125 15.5625q-0.40625 1.34375 -2.25 8.046875q-1.828125 6.6875 -3.015625 11.671875l10.46875 0q-1.125 -4.984375 -2.96875 -11.671875q-1.828125 -6.703125 -2.234375 -8.046875zm42.80246 44.390625q-10.625 0 -16.21875 -7.84375q-5.59375 -7.84375 -5.59375 -23.578125q0 -7.96875 1.546875 -13.609375q1.546875 -5.640625 4.421875 -9.296875q2.890625 -3.65625 6.84375 -5.28125q3.953125 -1.625 8.515625 -1.625q3.765625 0 7.046875 1.0q3.296875 1.0 6.453125 3.234375l-3.296875 9.171875q-3.515625 -2.34375 -5.484375 -3.0625q-1.96875 -0.71875 -4.5625 -0.71875q-5.40625 0 -7.953125 4.703125q-2.546875 4.703125 -2.546875 15.484375q0 10.890625 2.71875 16.34375q2.734375 5.4375 8.59375 5.4375q2.953125 0 4.765625 -0.703125q1.828125 -0.71875 5.359375 -3.078125l3.09375 8.8125q-2.96875 2.34375 -6.234375 3.46875q-3.265625 1.140625 -7.46875 1.140625zm52.52057 -59.953125q-2.171875 5.984375 -3.828125 10.25q-1.640625 4.265625 -3.5 8.640625q-1.84375 4.375 -3.765625 8.71875q-1.921875 4.34375 -3.6875 7.953125l0 23.1875l-10.515625 0l0 -22.703125q-1.765625 -3.609375 -3.78125 -8.03125q-2.0 -4.421875 -3.859375 -8.828125q-1.84375 -4.421875 -3.53125 -8.765625q-1.6875 -4.34375 -3.84375 -10.421875l11.3125 0q2.4375 7.421875 5.0625 14.421875q2.625 6.984375 3.890625 9.75q1.265625 -2.765625 3.890625 -9.75q2.625 -7.0 5.0625 -14.421875l11.09375 0zm28.329987 26.1875q-0.703125 -3.0 -1.296875 -5.21875q-0.59375 -2.234375 -1.234375 -4.484375q-0.625 -2.265625 -1.34375 -4.453125q-0.71875 -2.1875 0.546875 -2.59375q1.25 2.28125 1.0 7.609375q-0.234375 5.3125 -0.4375 12.578125l-8.109375 0q0.203125 -8.1875 0.59375 -14.859375q0.40625 -6.671875 1.203125 -14.921875l8.6875 0q0.875 2.578125 1.515625 4.6875q0.65625 2.09375 1.296875 4.390625q0.640625 2.28125 1.3125 4.578125q0.6875 2.28125 -0.4375 2.609375q-1.109375 -0.3125 -0.4375 -2.609375q0.6875 -2.296875 1.328125 -4.578125q0.640625 -2.296875 1.28125 -4.390625q0.65625 -2.109375 1.53125 -4.6875l8.6875 0q0.796875 8.25 1.1875 14.921875q0.40625 6.671875 0.609375 14.859375l-8.109375 0q-0.203125 -7.265625 -0.453125 -12.578125q-0.234375 -5.328125 0.96875 -7.65625q1.21875 0.40625 0.5 2.578125q-0.703125 2.171875 -1.375 4.46875q-0.671875 2.296875 -1.21875 4.5q-0.546875 2.1875 -1.09375 5.25l-6.703125 0zm-9.03125 -26.34375l0 7.859375l-6.40625 0l0 21.921875l-8.4375 0l0 -21.921875l-6.390625 0l0 -7.859375l21.234375 0z" fill-rule="nonzero"/></g><g filter="url(#shadowFilter-g26e7592218d_0_50.2)"><use xlink:href="#g26e7592218d_0_50.2" transform="matrix(1.0 0.0 0.0 1.0 0.0 3.0)"/></g><defs><filter id="shadowFilter-g26e7592218d_0_50.2" filterUnits="userSpaceOnUse"><feGaussianBlur in="SourceAlpha" stdDeviation="2.0" result="blur"/><feComponentTransfer in="blur" color-interpolation-filters="sRGB"><feFuncR type="linear" slope="0" intercept="0.0"/><feFuncG type="linear" slope="0" intercept="0.0"/><feFuncB type="linear" slope="0" intercept="0.0"/><feFuncA type="linear" slope="0.5" intercept="0"/></feComponentTransfer></filter></defs><g id="g26e7592218d_0_50.2"><path fill="#000000" fill-opacity="0.0" d="m121.79801 94.059784l375.49606 0l0 156.34645l-375.49606 0z" fill-rule="evenodd"/><path fill="#1c4587" d="m180.2757 145.29977l-6.859375 0l0 -31.781242l22.40625 0l0 6.875l-15.671875 0l0 5.578125l15.703125 0l0 6.8281174l-15.578125 0l0 12.5zm27.397324 -24.203117q2.109375 0 3.78125 0.65625q1.6875 0.65625 2.90625 1.84375q1.21875 1.1875 1.84375 2.859375q0.640625 1.6562424 0.640625 3.7187424l0 6.03125q0 2.015625 -0.640625 3.703125q-0.625 1.6875 -1.84375 2.90625q-1.21875 1.21875 -2.90625 1.859375q-1.671875 0.625 -3.78125 0.625l-1.8125 0q-2.046875 0 -3.765625 -0.625q-1.703125 -0.640625 -2.921875 -1.859375q-1.21875 -1.21875 -1.828125 -2.90625q-0.609375 -1.703125 -0.609375 -3.703125l0 -6.03125q0 -2.046875 0.609375 -3.7031174q0.609375 -1.671875 1.828125 -2.859375q1.21875 -1.203125 2.921875 -1.859375q1.703125 -0.65625 3.765625 -0.65625l1.8125 0zm-1.8125 6.859375q-1.0 0 -1.671875 0.6562424q-0.671875 0.640625 -0.671875 1.703125l0 5.71875q0 1.078125 0.671875 1.734375q0.6875 0.65625 1.671875 0.65625l1.8125 0q1.03125 0 1.65625 -0.65625q0.640625 -0.65625 0.640625 -1.734375l0 -5.71875q0 -1.078125 -0.640625 -1.71875q-0.625 -0.6406174 -1.65625 -0.6406174l-1.8125 0zm19.17833 -2.5625q-0.40625 -0.453125 0.734375 -1.3125q1.15625 -0.859375 2.5 -1.421875q1.34375 -0.5625 2.84375 -0.84375q1.515625 -0.28125 3.0 -0.28125l1.46875 0l0 7.2656174l-1.46875 0q-1.421875 0 -2.96875 0.59375q-1.53125 0.578125 -2.796875 1.53125q-1.265625 0.953125 -2.015625 2.046875q-0.734375 1.09375 -0.734375 2.09375l0 10.234375l-7.265625 0l0 -24.390617l7.265625 0l-0.5625 4.484375zm35.522064 -4.296875q2.109375 0 3.78125 0.65625q1.6875 0.65625 2.90625 1.84375q1.21875 1.1875 1.84375 2.859375q0.640625 1.6562424 0.640625 3.7187424l0 6.03125q0 2.015625 -0.640625 3.703125q-0.625 1.6875 -1.84375 2.90625q-1.21875 1.21875 -2.90625 1.859375q-1.671875 0.625 -3.78125 0.625l-1.8125 0q-2.046875 0 -3.7656403 -0.625q-1.703125 -0.640625 -2.921875 -1.859375q-1.21875 -1.21875 -1.828125 -2.90625q-0.609375 -1.703125 -0.609375 -3.703125l0 -6.03125q0 -2.046875 0.609375 -3.7031174q0.609375 -1.671875 1.828125 -2.859375q1.21875 -1.203125 2.921875 -1.859375q1.7031403 -0.65625 3.7656403 -0.65625l1.8125 0zm-1.8125 6.859375q-1.0 0 -1.671875 0.6562424q-0.671875 0.640625 -0.671875 1.703125l0 5.71875q0 1.078125 0.671875 1.734375q0.6875 0.65625 1.671875 0.65625l1.8125 0q1.03125 0 1.65625 -0.65625q0.640625 -0.65625 0.640625 -1.734375l0 -5.71875q0 -1.078125 -0.640625 -1.71875q-0.625 -0.6406174 -1.65625 -0.6406174l-1.8125 0zm12.600189 -14.4375l7.015625 0l0 31.781242l-7.015625 0l0 -31.781242zm17.941498 31.781242q-2.109375 0 -3.796875 -0.625q-1.671875 -0.640625 -2.890625 -1.859375q-1.21875 -1.21875 -1.859375 -2.90625q-0.640625 -1.6875 -0.640625 -3.703125l0 -6.03125q0 -2.0625 0.640625 -3.7187424q0.640625 -1.671875 1.859375 -2.859375q1.21875 -1.1875 2.890625 -1.84375q1.6875 -0.65625 3.796875 -0.65625l1.765625 0q2.0 0 2.4375 0.15625l0 -7.734375l6.734375 0l0 31.781242l-10.9375 0zm4.203125 -6.875l0 -8.109375q0 -1.0625 -0.703125 -1.703125q-0.6875 -0.6562424 -1.734375 -0.6562424l-1.765625 0q-1.046875 0 -1.765625 0.6562424q-0.71875 0.65625 -0.71875 1.703125l0 5.71875q0 1.0625 0.71875 1.734375q0.71875 0.65625 1.765625 0.65625l4.203125 0zm29.940796 6.875q-2.109375 0 -3.796875 -0.625q-1.671875 -0.640625 -2.890625 -1.859375q-1.21875 -1.21875 -1.859375 -2.90625q-0.640625 -1.6875 -0.640625 -3.703125l0 -6.03125q0 -2.0625 0.640625 -3.7187424q0.640625 -1.671875 1.859375 -2.859375q1.21875 -1.1875 2.890625 -1.84375q1.6875 -0.65625 3.796875 -0.65625l1.765625 0q2.0 0 2.4375 0.15625l0 -7.734375l6.734375 0l0 31.781242l-10.9375 0zm4.203125 -6.875l0 -8.109375q0 -1.0625 -0.703125 -1.703125q-0.6875 -0.6562424 -1.734375 -0.6562424l-1.765625 0q-1.046875 0 -1.765625 0.6562424q-0.71875 0.65625 -0.71875 1.703125l0 5.71875q0 1.0625 0.71875 1.734375q0.71875 0.65625 1.765625 0.65625l4.203125 0zm7.647064 -8.46875q0 -1.8125 0.6875 -3.3906174q0.6875 -1.59375 1.796875 -2.8125q1.125 -1.21875 2.609375 -1.9375q1.5 -0.71875 3.03125 -0.71875l5.015625 0q1.953125 0 3.46875 0.828125q1.53125 0.828125 2.53125 2.078125q1.0 1.234375 1.5625 2.78125q0.5625 1.5312424 0.5625 2.9999924l0 6.578125l-14.265625 0l0 0.28125q0 1.140625 0.578125 1.578125q0.578125 0.421875 1.734375 0.421875l11.15625 0l0 6.75l-12.296875 0q-1.6875 0 -3.1875 -0.671875q-1.484375 -0.671875 -2.59375 -1.8125q-1.109375 -1.140625 -1.75 -2.703125q-0.640625 -1.578125 -0.640625 -3.421875l0 -6.828125zm6.359375 1.109375l8.671875 0l-0.6875 0q0 -1.40625 -0.65625 -2.234375q-0.640625 -0.828125 -1.6875 -0.828125l-2.734375 0q-0.453125 0 -0.84375 0.234375q-0.390625 0.21875 -0.6875 0.609375q-0.296875 0.390625 -0.5 0.984375q-0.1875 0.578125 -0.1875 1.234375l-0.6875 0zm28.357727 14.234375l-6.28125 0l-7.3125 -24.203117l6.765625 0l3.625 11.953117l3.53125 -11.953117l6.8125 0l-7.140625 24.203117zm14.834076 0l-7.0 0l0 -24.203117l7.0 0l0 24.203117zm0 -24.812492l-7.0 0l0 -6.96875l7.0 0l0 6.96875zm12.126495 17.937492q0.765625 0 1.25 -0.328125q0.5 -0.34375 0.8125 -1.5625l6.96875 0q-0.5625 4.515625 -2.890625 6.640625q-2.328125 2.125 -6.140625 2.125l-1.8125 0q-2.046875 0 -3.765625 -0.625q-1.703125 -0.640625 -2.90625 -1.859375q-1.1875 -1.21875 -1.84375 -2.90625q-0.65625 -1.6875 -0.65625 -3.703125l0 -6.03125q0 -2.0625 0.65625 -3.7187424q0.671875 -1.671875 1.859375 -2.859375q1.1875 -1.1875 2.890625 -1.84375q1.703125 -0.65625 3.765625 -0.65625l1.8125 0q3.921875 0 6.234375 2.125q2.328125 2.125 2.765625 6.7656174l-6.875 0q-0.375 -1.34375 -0.828125 -1.6875q-0.453125 -0.34374237 -1.296875 -0.34374237l-1.8125 0q-1.03125 0 -1.671875 0.6406174q-0.625 0.640625 -0.625 1.71875l0 5.71875q0 1.078125 0.625 1.734375q0.640625 0.65625 1.671875 0.65625l1.8125 0zm9.250183 -8.46875q0 -1.8125 0.6875 -3.3906174q0.6875 -1.59375 1.796875 -2.8125q1.125 -1.21875 2.609375 -1.9375q1.5 -0.71875 3.03125 -0.71875l5.015625 0q1.953125 0 3.46875 0.828125q1.53125 0.828125 2.53125 2.078125q1.0 1.234375 1.5625 2.78125q0.5625 1.5312424 0.5625 2.9999924l0 6.578125l-14.265625 0l0 0.28125q0 1.140625 0.578125 1.578125q0.578125 0.421875 1.734375 0.421875l11.15625 0l0 6.75l-12.296875 0q-1.6875 0 -3.1875 -0.671875q-1.484375 -0.671875 -2.59375 -1.8125q-1.109375 -1.140625 -1.75 -2.703125q-0.640625 -1.578125 -0.640625 -3.421875l0 -6.828125zm6.359375 1.109375l8.671875 0l-0.6875 0q0 -1.40625 -0.65625 -2.234375q-0.640625 -0.828125 -1.6875 -0.828125l-2.734375 0q-0.453125 0 -0.84375 0.234375q-0.390625 0.21875 -0.6875 0.609375q-0.296875 0.390625 -0.5 0.984375q-0.1875 0.578125 -0.1875 1.234375l-0.6875 0zm33.654602 -3.8124924l-9.671875 0q-0.328125 0 -0.515625 0.109375q-0.1875 0.09375 -0.359375 0.3125q-0.15625 0.203125 -0.25 0.48436737q-0.078125 0.265625 -0.078125 0.53125q0 0.515625 0.3125 0.90625q0.3125 0.375 0.671875 0.375l4.921875 0q1.75 0 3.09375 0.625q1.34375 0.609375 2.234375 1.6875q0.90625 1.0625 1.328125 2.5q0.421875 1.4375 0.421875 3.015625l0 0.125q0 1.625 -0.53125 2.984375q-0.515625 1.34375 -1.484375 2.3125q-0.96875 0.96875 -2.28125 1.53125q-1.3125 0.546875 -2.78125 0.546875l-11.546875 0l0 -6.171875l10.0625 0q0.734375 0 1.28125 -0.359375q0.546875 -0.375 1.484375 -1.015625l0 0.046875q-0.90625 -0.4375 -1.046875 -0.6875q-0.125 -0.25 -0.375 -0.421875q-0.25 -0.1875 -0.59375 -0.265625q-0.34375 -0.09375 -0.75 -0.09375l-3.96875 0q-2.15625 0 -3.59375 -0.703125q-1.4375 -0.71875 -2.296875 -1.84375q-0.84375 -1.140625 -1.140625 -2.515625q-0.296875 -1.390625 -0.296875 -2.765625q0 -1.4531174 0.4375 -2.8281174q0.453125 -1.390625 1.34375 -2.484375q0.890625 -1.09375 2.21875 -1.703125q1.328125 -0.609375 2.984375 -0.609375l10.765625 0l0 6.375z" fill-rule="nonzero"/></g></g></svg>