<svg version="1.1" viewBox="0.0 0.0 960.0 720.0" fill="none" stroke="none" stroke-linecap="square" stroke-miterlimit="10" xmlns:xlink="http://www.w3.org/1999/xlink" xmlns="http://www.w3.org/2000/svg"><clipPath id="p.0"><path d="m0 0l960.0 0l0 720.0l-960.0 0l0 -720.0z" clip-rule="nonzero"/></clipPath><g clip-path="url(#p.0)"><defs><linearGradient id="p.1" gradientUnits="userSpaceOnUse" gradientTransform="matrix(26.832880486358114 0.0 0.0 26.832880486358114 0.0 0.0)" spreadMethod="pad" x1="4.688335489203603E-10" y1="-1.2951238918580753E-4" x2="-9.713429188935564E-5" y2="26.832750973793114"><stop offset="0.0" stop-color="#cfe2f3"/><stop offset="1.0" stop-color="#ffffff"/></linearGradient></defs><path fill="url(#p.1)" d="m0 0l960.0 0l0 720.0l-960.0 0z" fill-rule="evenodd"/><path fill="#000000" fill-opacity="0.0" d="m172.4357 205.71391l791.0867 0l0 48.472443l-791.0867 0z" fill-rule="evenodd"/><path fill="#000000" fill-opacity="0.0" d="m257.6378 67.88189l444.7244 0l0 100.18897l-444.7244 0z" fill-rule="evenodd"/><path fill="#ff0000" d="m367.38037 86.960014l23.390625 0l0 13.0l-2.890625 0l-9.921875 40.921883l-21.59375 0l-5.890625 -29.000008l0.671875 0.015625l-6.234375 28.984383l-21.5625 0l-10.59375 -40.921883l-2.90625 0l0 -13.0l26.734375 0l0 13.0l-2.359375 0l2.0625 15.1875l-0.671875 -0.0625l6.171875 -28.125l20.859375 0l5.6875 28.15625l-0.65625 0.046875l2.0625 -15.203125l-2.359375 0l0 -13.0zm41.631287 54.859383q-9.875 0 -15.515625 -5.25q-5.640625 -5.265625 -5.640625 -15.250008q0 -9.984375 5.640625 -15.234375q5.640625 -5.265625 15.515625 -5.265625q9.890625 0 14.328125 5.234375q4.4375 5.21875 4.4375 12.859375l0 5.84375l-22.234375 -0.640625l0.640625 0q0 1.96875 1.125 2.875q1.125 0.890625 4.171875 0.890625q3.984375 0 7.5625 -0.578125q3.578125 -0.578125 7.59375 -1.953125l0 12.703133q-2.984375 1.625 -7.609375 2.703125q-4.625 1.0625 -10.015625 1.0625zm3.0625 -26.234383l-0.234375 0q0 -1.84375 -0.671875 -2.53125q-0.65625 -0.703125 -2.15625 -0.703125q-1.484375 0 -2.15625 0.71875q-0.671875 0.71875 -0.671875 2.515625l-0.234375 0l6.125 0zm17.718872 25.359383l0 -13.062508l2.921875 0l0 -27.921875l-2.921875 0l0 -13.0l20.328125 0l0 40.921875l2.921875 0l0 13.062508l-23.25 0zm46.360962 0.875q-9.9375 0 -15.578125 -5.25q-5.640625 -5.265625 -5.640625 -15.250008q0 -9.984375 5.640625 -15.234375q5.640625 -5.265625 15.515625 -5.265625q4.75 0 9.09375 1.3125q4.359375 1.3125 7.265625 3.3125l0 14.78125l-13.53125 0l0 -2.234375q0 -1.8125 -0.640625 -2.515625q-0.640625 -0.71875 -2.1875 -0.71875q-2.828125 0 -2.828125 3.234375l0 5.734375q0 4.15625 4.890625 4.15625q5.453125 0 13.90625 -1.375l0 12.343758q-2.984375 1.3125 -7.203125 2.140625q-4.203125 0.828125 -8.703125 0.828125zm39.4765 0q-9.875 0 -15.515625 -5.25q-5.640625 -5.265625 -5.640625 -15.250008q0 -9.984375 5.640625 -15.234375q5.640625 -5.265625 15.515625 -5.265625q10.0 0 15.578125 5.34375q5.578125 5.328125 5.578125 15.15625q0 9.984383 -5.640625 15.250008q-5.640625 5.25 -15.515625 5.25zm0 -13.937508q1.484375 0 2.15625 -0.71875q0.671875 -0.71875 0.671875 -2.515625l0 -6.65625q0 -1.796875 -0.671875 -2.515625q-0.671875 -0.71875 -2.15625 -0.71875q-1.484375 0 -2.15625 0.71875q-0.671875 0.71875 -0.671875 2.515625l0 6.65625q0 1.796875 0.671875 2.515625q0.671875 0.71875 2.15625 0.71875zm92.68933 0l0 13.000008l-23.125 0l0 -13.000008l2.8125 0l0 -9.890625q0 -1.796875 -0.65625 -2.515625q-0.640625 -0.71875 -2.046875 -0.71875q-2.96875 0 -2.96875 3.234375l0 9.890625l2.796875 0l0 13.000008l-23.0 0l0 -13.000008l2.8125 0l0 -9.890625q0 -1.796875 -0.65625 -2.515625q-0.640625 -0.71875 -2.046875 -0.71875q-2.96875 0 -2.96875 3.234375l0 9.890625l2.796875 0l0 13.000008l-23.125 0l0 -13.000008l2.921875 0l0 -13.125l-2.921875 0l0 -13.0l20.328125 0l0 3.234375q3.265625 -4.171875 10.96875 -4.171875q4.40625 0 7.234375 2.109375q2.84375 2.109375 3.390625 3.859375q1.3125 -1.890625 4.625 -3.890625q3.328125 -2.0 7.8125 -2.0q6.03125 0 9.0625 3.796875q3.03125 3.796875 3.03125 10.234375l0 12.953125l2.921875 0zm23.049683 13.937508q-9.875 0 -15.515625 -5.25q-5.640625 -5.265625 -5.640625 -15.250008q0 -9.984375 5.640625 -15.234375q5.640625 -5.265625 15.515625 -5.265625q9.890625 0 14.328125 5.234375q4.4375 5.21875 4.4375 12.859375l0 5.84375l-22.234375 -0.640625l0.640625 0q0 1.96875 1.125 2.875q1.125 0.890625 4.171875 0.890625q3.984375 0 7.5625 -0.578125q3.578125 -0.578125 7.59375 -1.953125l0 12.703133q-2.984375 1.625 -7.609375 2.703125q-4.625 1.0625 -10.015625 1.0625zm3.0625 -26.234383l-0.234375 0q0 -1.84375 -0.671875 -2.53125q-0.65625 -0.703125 -2.15625 -0.703125q-1.484375 0 -2.15625 0.71875q-0.671875 0.71875 -0.671875 2.515625l-0.234375 0l6.125 0z" fill-rule="nonzero"/><path fill="#000000" fill-opacity="0.0" d="m262.61417 137.99738l444.7244 0l0 100.18898l-444.7244 0z" fill-rule="evenodd"/><path fill="#ff0000" d="m465.49133 211.93488q-7.484375 0 -11.359375 -3.734375q-3.859375 -3.734375 -3.859375 -12.296875l0 -11.03125l-2.9375 0l0 -13.0q3.125 0 4.09375 -0.984375q0.96875 -1.0 0.96875 -2.84375l0 -4.03125l16.203125 0l0 7.859375l9.0 0l0 13.0l-9.0 0l0 9.890625q0 1.796875 0.671875 2.515625q0.671875 0.71875 2.15625 0.71875q2.4375 0 6.5625 -0.8125l0 12.421875q-2.59375 1.03125 -5.859375 1.671875q-3.25 0.65625 -6.640625 0.65625zm35.546387 0q-9.875 0 -15.515625 -5.25q-5.640625 -5.265625 -5.640625 -15.25q0 -9.984375 5.640625 -15.234375q5.640625 -5.265625 15.515625 -5.265625q10.0 0 15.578125 5.34375q5.578125 5.328125 5.578125 15.15625q0 9.984375 -5.640625 15.25q-5.640625 5.25 -15.515625 5.25zm0 -13.9375q1.484375 0 2.15625 -0.71875q0.671875 -0.71875 0.671875 -2.515625l0 -6.65625q0 -1.796875 -0.671875 -2.515625q-0.671875 -0.71875 -2.15625 -0.71875q-1.484375 0 -2.15625 0.71875q-0.671875 0.71875 -0.671875 2.515625l0 6.65625q0 1.796875 0.671875 2.515625q0.671875 0.71875 2.15625 0.71875z" fill-rule="nonzero"/><path fill="#000000" fill-opacity="0.0" d="m262.61417 222.18636l444.7244 0l0 100.18898l-444.7244 0z" fill-rule="evenodd"/><path fill="#93c47d" d="m282.36148 295.18634l0 -13.0l3.34375 0l0 -27.92186l-3.34375 0l0 -13.0l30.203125 0l0 13.0l-6.140625 0l0 27.92186l3.9375 0l0 -6.125l15.328125 0l0 19.125l-43.328125 0zm45.604736 0l0 -13.0l3.34375 0l0 -27.92186l-3.34375 0l0 -13.0l47.0625 0l0 22.187485l-17.0 0l0 -9.187485l-6.0 0l0 8.468735l5.875 0l0 9.65625l-5.875 0l0 9.796875l6.0 0l0 -10.53125l17.0 0l0 23.53125l-47.0625 0zm125.197845 -40.92186l-3.34375 0l0 27.92186l3.34375 0l0 13.0l-27.265625 0l0 -13.0l3.203125 0l1.03125 -22.296875l-10.578125 35.296875l-11.359375 0l-10.921875 -34.953125l1.03125 21.953125l3.203125 0l0 13.0l-23.9375 0l0 -13.0l3.34375 0l0 -27.92186l-3.34375 0l0 -13.0l32.3125 0l6.171875 18.51561l5.921875 -18.51561l31.1875 0l0 13.0zm58.0632 0l-3.328125 0l0 27.92186l3.328125 0l0 13.0l-27.25 0l0 -13.0l3.1875 0l0 -8.9375l-7.265625 0l0 8.9375l3.203125 0l0 13.0l-27.265625 0l0 -13.0l3.34375 0l0 -27.92186l-3.34375 0l0 -13.0l27.265625 0l0 13.0l-3.203125 0l0 8.062485l7.265625 0l0 -8.062485l-3.1875 0l0 -13.0l27.25 0l0 13.0zm53.428864 27.92186l2.90625 0l0 13.0l-28.1875 0l0 -13.0l3.78125 0l-0.65625 -3.265625l-7.390625 0l-0.65625 3.265625l3.78125 0l0 13.0l-24.859375 0l0 -13.0l2.921875 0l11.265625 -40.92186l25.828125 0l11.265625 40.92186zm-27.65625 -12.390625l3.609375 0l-2.140625 -11.40625l0.671875 0l-2.140625 11.40625zm71.11566 -28.531235l23.921875 0l0 13.0l-3.34375 0l0 40.92186l-20.3125 0l-17.9375 -27.609375l0 14.609375l3.203125 0l0 13.0l-23.9375 0l0 -13.0l3.34375 0l0 -27.92186l-3.34375 0l0 -13.0l25.65625 0l15.9375 24.312485l0 -11.312485l-3.1875 0l0 -13.0zm26.462158 40.92186l3.34375 0l0 -27.85936l-3.34375 0l0 -13.0625l28.09375 0q11.546875 0 18.421875 6.390625q6.875 6.390625 6.875 20.57811q0 14.171875 -6.875 20.5625q-6.875 6.390625 -18.421875 6.390625l-28.09375 0l0 -13.0zm26.90625 0q1.828125 0 2.65625 -0.875q0.84375 -0.890625 0.84375 -3.015625l0 -20.140625q0 -3.8906097 -3.5 -3.8906097l-2.84375 0l0 27.92186l2.84375 0z" fill-rule="nonzero"/><path fill="#93c47d" d="m477.13907 360.5926l-3.171875 -34.921875l0 -4.40625l22.0 0l0 4.40625l-3.234375 34.921875l-15.59375 0zm-0.765625 14.59375l0 -13.0l17.125 0l0 13.0l-17.125 0z" fill-rule="nonzero"/></g></svg>